<svg width="24" height="25" viewBox="0 0 24 25" fill="none" xmlns="http://www.w3.org/2000/svg">
<g clip-path="url(#clip0_5_333)">
<path d="M24 12.3948C24 5.7674 18.6274 0.394775 12 0.394775C5.37262 0.394775 0 5.7674 0 12.3948C0 18.3843 4.38825 23.3488 10.125 24.249V15.8635H7.07812V12.3948H10.125V9.75103C10.125 6.74353 11.9166 5.08228 14.6576 5.08228C15.9705 5.08228 17.3438 5.31665 17.3438 5.31665V8.26978H15.8306C14.3399 8.26978 13.875 9.19481 13.875 10.1438V12.3948H17.2031L16.6711 15.8635H13.875V24.249C19.6117 23.3488 24 18.3844 24 12.3948Z" fill="#1877F2"/>
<path d="M16.6711 15.8635L17.2031 12.3948H13.875V10.1438C13.875 9.19471 14.3399 8.26978 15.8306 8.26978H17.3438V5.31665C17.3438 5.31665 15.9705 5.08228 14.6575 5.08228C11.9166 5.08228 10.125 6.74353 10.125 9.75103V12.3948H7.07812V15.8635H10.125V24.249C10.7453 24.3462 11.3722 24.3949 12 24.3948C12.6278 24.3949 13.2547 24.3462 13.875 24.249V15.8635H16.6711Z" fill="white"/>
</g>
<defs>
<clipPath id="clip0_5_333">
<rect width="24" height="24" fill="white" transform="translate(0 0.394775)"/>
</clipPath>
</defs>
</svg>
