<svg width="58" height="54" viewBox="0 0 58 54" fill="none" xmlns="http://www.w3.org/2000/svg">
<g clip-path="url(#clip0_1_361)">
<path d="M18.5917 14.6671C18.6511 14.0588 19.0132 13.5351 19.5594 13.2663C27.9864 9.12658 33.1218 16.7139 33.7301 17.679L34.513 18.4524V15.2552C32.765 15.224 30.6793 13.67 28.5448 10.7377C26.4439 7.85161 27.3156 3.38558 28.3718 1.80072C28.8681 1.0567 29.5896 0.653819 30.4586 0.635904C32.3385 0.616084 34.5435 2.41896 35.8707 4.24204C36.8419 5.57647 37.5531 7.67665 37.7269 9.72309C37.7864 10.4233 37.8039 11.4101 37.5992 12.3607C37.8329 11.7276 38.155 11.0274 38.5689 10.2586C41.2103 5.3535 44.0046 4.26872 45.4351 4.0587C46.4962 3.90167 47.4564 4.13646 48.0033 4.68304C49.3103 5.98965 47.8089 8.61392 47.6142 8.93981C47.4895 9.15745 45.5182 12.5448 42.5383 15.028C41.5137 15.8822 40.1961 16.5108 39.1029 16.5108C38.8391 16.5108 38.5891 16.4726 38.3589 16.3937L35.8455 20.3563V24.002L37.2478 21.1971C37.2871 21.119 37.34 21.0526 37.4014 20.9977C39.2432 17.9893 42.2254 15.83 43.2888 15.1214C44.5744 14.2646 46.0857 13.7603 47.6584 13.6635C49.7448 13.5324 51.7593 14.3332 53.192 15.8521C53.4779 16.1551 53.6243 16.5519 53.6033 16.9693C53.5823 17.3825 53.3918 17.7747 53.0796 18.0453C49.3404 21.2867 46.4429 21.9571 43.6406 22.6059C42.746 22.8132 41.9014 23.0087 41.0239 23.2862C37.7864 24.3104 37.1979 24.5459 37.1121 24.5833C37.0843 24.5978 37.0553 24.61 37.026 24.6203L35.924 26.8241H43.1725C43.3677 26.8241 43.5533 26.9099 43.6798 27.0582C43.8064 27.2068 43.8617 27.4035 43.8304 27.5963L41.8937 39.5868L41.4634 42.2511C41.4116 42.574 41.1326 42.811 40.8059 42.811H29.3826C29.0556 42.811 28.777 42.574 28.7247 42.2511L28.2944 39.5868L26.3577 27.5963C26.3265 27.4035 26.3821 27.2068 26.5083 27.0582C26.6348 26.9099 26.8205 26.8241 27.0156 26.8241H34.513V20.3246L33.0654 18.8949C31.5537 19.4926 30.079 19.7353 28.6828 19.7353C24.4154 19.7353 20.8836 17.4808 19.2838 16.2588C18.7899 15.8811 18.531 15.2861 18.5917 14.6671ZM36.3997 9.83553C36.2477 8.04562 35.6172 6.15774 34.7935 5.02608C33.498 3.24607 31.7081 1.96767 30.5196 1.96767C30.5086 1.96767 30.4971 1.96767 30.4861 1.96805C30.0542 1.9772 29.7344 2.15863 29.4806 2.54017C28.5948 3.86889 27.9758 7.69266 29.6224 9.95407C30.5063 11.1684 33.5391 15.0231 35.4537 13.6296C36.2011 13.0849 36.5552 11.667 36.3997 9.83553ZM38.6615 15.0658C39.0789 15.4065 40.4614 15.0258 41.6856 14.005C44.5108 11.651 46.4421 8.30633 46.4615 8.27279C46.4634 8.26936 46.4661 8.26516 46.4684 8.26135C46.9746 7.41404 47.4625 6.02586 47.0615 5.62526C46.9429 5.50672 46.6193 5.34282 46.0785 5.34282C45.9424 5.34282 45.7922 5.35312 45.6287 5.37713C44.6762 5.51701 42.1956 6.33422 39.7421 10.8906C38.2487 13.6635 38.3604 14.8199 38.6615 15.0658ZM37.2611 15.6383C37.2901 15.5925 37.3248 15.5529 37.3622 15.5171C37.0961 14.972 37.0786 14.2333 37.3061 13.3079C37.0729 13.8556 36.7313 14.3473 36.2374 14.7067C36.1101 14.7997 35.9793 14.8805 35.8455 14.9495V17.87L37.2611 15.6383ZM37.8984 22.8951C38.5098 22.6912 39.3792 22.4099 40.6222 22.0162C41.5492 21.7227 42.4601 21.5123 43.3406 21.3084C46.1059 20.668 48.718 20.0635 52.2067 17.039C52.2605 16.9925 52.2711 16.9338 52.2727 16.9033C52.2746 16.8668 52.2673 16.8134 52.2231 16.7669C52.2227 16.7669 52.2227 16.7665 52.2227 16.7665C51.1433 15.6219 49.6537 14.9831 48.0921 14.9831C47.9751 14.9831 47.8577 14.9865 47.7403 14.9937C46.4017 15.0761 45.118 15.5037 44.0275 16.2302C42.9412 16.954 39.6994 19.302 38.1066 22.4595L38.0296 22.6131C37.9846 22.7065 37.9404 22.8002 37.8984 22.8951ZM29.9498 41.4789H40.2388L40.4537 40.1467H29.7344L29.9498 41.4789ZM29.5194 38.8146H40.6691L42.3904 28.1567H27.7978L29.5194 38.8146ZM20.0927 15.2V15.2003C22.4269 16.9834 26.9908 19.5901 32.0942 17.8334C32.0694 17.7602 32.0564 17.684 32.0576 17.6073C31.5064 16.8843 30.5737 15.8228 29.301 14.9465C26.4984 13.0174 23.419 12.8547 20.1472 14.462C19.9672 14.5505 19.9261 14.7098 19.9173 14.7974C19.9101 14.8725 19.9124 15.0624 20.0927 15.2Z" fill="#EFEFEF"/>
</g>
<path d="M31.3789 45.5349H23.9455H23.0163C22.9486 45.5349 22.894 45.4803 22.894 45.4126V43.9835C22.894 43.9158 22.9486 43.8612 23.0163 43.8612H30.0854C30.1531 43.8612 30.2077 43.9158 30.2077 43.9835V44.603C30.2077 44.7364 30.3163 44.845 30.4497 44.845C30.5831 44.845 30.6917 44.7364 30.6917 44.603V43.9835C30.6917 43.6489 30.42 43.3772 30.0854 43.3772H26.6867C26.0251 37.899 23.7886 32.8093 20.204 28.6191C20.3277 28.5188 20.3982 28.3716 20.3982 28.2119V27.4334C20.3982 27.2267 20.2772 27.0428 20.0947 26.9585L22.549 24.2837C22.9541 23.8419 23.0786 23.2397 22.8815 22.6735C22.6838 22.1073 22.2123 21.7125 21.6205 21.6185L20.5386 21.4464L20.7135 21.0648C20.8552 20.755 20.8517 20.4024 20.7038 20.0955C20.5558 19.7885 20.2821 19.5666 19.9516 19.4843L19.3446 19.3343C16.5882 18.6527 13.6756 18.6547 10.9206 19.3412L10.3502 19.4837C10.0204 19.5659 9.74667 19.7885 9.59941 20.0948C9.45215 20.4011 9.4487 20.7543 9.59042 21.0634L9.76602 21.4471L8.68338 21.6192C8.09089 21.7132 7.6194 22.108 7.42236 22.6742C7.22464 23.2404 7.34908 23.8426 7.7549 24.2844L10.2092 26.9592C10.0267 27.0442 9.90567 27.2274 9.90567 27.4341V28.2126C9.90567 28.3723 9.97688 28.5202 10.1006 28.6205C5.78733 33.6645 3.41463 40.0761 3.41463 46.7227V49.1417C3.41463 50.9883 4.91693 52.4912 6.7642 52.4912H21.4152C21.5486 52.4912 21.6572 52.3827 21.6572 52.2493C21.6572 52.1158 21.5486 52.0073 21.4152 52.0073H6.76144C5.18171 52.0073 3.89581 50.7221 3.89581 49.1417V46.7227C3.89581 40.0864 6.30169 33.688 10.6744 28.6917C13.6058 27.9616 16.6954 27.9616 19.6267 28.6917C23.259 32.8398 25.5273 37.9108 26.1993 43.3779H23.017C22.6824 43.3779 22.4107 43.6496 22.4107 43.9842V45.4132C22.4107 45.7479 22.6824 46.0196 23.017 46.0196H23.7042V47.6933H23.017C22.6824 47.6933 22.4107 47.965 22.4107 48.2996V50.0923V51.8849C22.4107 52.2195 22.6824 52.4912 23.017 52.4912H30.086C30.4207 52.4912 30.6924 52.2195 30.6924 51.8849V50.0916V48.1766H31.3795C31.7142 48.1766 31.9859 47.9049 31.9859 47.5702V46.1419C31.9852 45.8066 31.7128 45.5349 31.3789 45.5349ZM18.2917 27.0594C18.8268 27.1486 19.3584 27.2599 19.8846 27.3947C19.9025 27.3996 19.915 27.4155 19.915 27.4341V28.2126C19.915 28.2292 19.9067 28.2388 19.8991 28.2444C19.8922 28.2499 19.8797 28.2554 19.8645 28.2513C19.5223 28.1635 19.178 28.0861 18.8323 28.0183C18.7715 27.6374 18.5751 27.3 18.2917 27.0594ZM7.87727 22.8325C8.01485 22.4371 8.34393 22.1619 8.75735 22.0962L9.97343 21.9027L11.363 24.9363C11.4183 25.058 11.5621 25.1112 11.6838 25.0559C11.8055 24.9999 11.8587 24.8568 11.8027 24.7351L10.0287 20.8608C9.94715 20.6831 9.94923 20.4799 10.0343 20.3036C10.1193 20.1273 10.2762 19.9994 10.4664 19.9517L11.0367 19.8093C13.715 19.1421 16.5474 19.1394 19.2271 19.8024L19.8341 19.9524C20.0242 19.9994 20.1818 20.1273 20.2669 20.3036C20.3519 20.4799 20.354 20.6831 20.2724 20.8608L18.0269 25.7638C17.9716 25.8855 18.0248 26.0286 18.1458 26.0846C18.1783 26.0998 18.2129 26.1067 18.2468 26.1067C18.3387 26.1067 18.4265 26.0542 18.4666 25.9657L20.3277 21.9013L21.5431 22.0949C21.9565 22.1605 22.2856 22.4357 22.4232 22.8311C22.5607 23.2266 22.4743 23.6462 22.1916 23.9553L19.5651 26.8181C16.6663 26.1475 13.6327 26.1475 10.7339 26.8181L8.10749 23.9553C7.82611 23.6476 7.739 23.2273 7.87727 22.8325ZM30.2077 51.8842C30.2077 51.952 30.1531 52.0066 30.0854 52.0066H23.017C22.9493 52.0066 22.8947 51.952 22.8947 51.8842V50.3335H30.2077V51.8842ZM30.2077 49.8496H22.8947V48.2989C22.8947 48.2312 22.9493 48.1766 23.017 48.1766H23.9462H30.2084V49.8496H30.2077ZM31.5012 47.5696C31.5012 47.6373 31.4466 47.6919 31.3789 47.6919H30.4497H24.1875V46.0182H31.3782C31.4459 46.0182 31.5005 46.0728 31.5005 46.1405V47.5696H31.5012Z" fill="#0E6130" stroke="#ECECEC" stroke-width="0.753125"/>
<path d="M15.1509 32.8468C11.1384 32.8468 7.88558 36.0996 7.88558 40.1121C7.88558 44.1247 11.1384 47.3775 15.1509 47.3775C19.1635 47.3775 22.4163 44.1247 22.4163 40.1121C22.4163 36.0996 19.1635 32.8468 15.1509 32.8468ZM15.7413 44.0957V45.0988C15.7413 45.1472 15.7019 45.1866 15.6535 45.1866H14.6476C14.5992 45.1866 14.5598 45.1472 14.5598 45.0988V44.1026C13.4233 44.0632 12.5052 43.1506 12.4588 42.0161C12.4568 41.967 12.4975 41.9262 12.5466 41.9262H13.5539C13.5989 41.9262 13.6376 41.9601 13.641 42.0051C13.6811 42.518 14.1118 42.9239 14.6352 42.9239H15.5519C16.1824 42.9239 16.6919 42.395 16.6608 41.7576C16.6311 41.1616 16.1167 40.7032 15.5201 40.7032H14.7963C13.5353 40.7032 12.474 39.7049 12.4568 38.4439C12.4402 37.2292 13.3735 36.2261 14.5591 36.1286V35.1255C14.5591 35.0771 14.5985 35.0377 14.6469 35.0377H15.6528C15.7012 35.0377 15.7406 35.0771 15.7406 35.1255V36.1224C16.8772 36.1618 17.7953 37.0744 17.8416 38.2089C17.8437 38.258 17.8029 38.2988 17.7538 38.2988H16.7466C16.7016 38.2988 16.6629 38.2649 16.6594 38.2199C16.6193 37.707 16.1886 37.3018 15.6653 37.3018H14.7486C14.1181 37.3018 13.6085 37.8307 13.6396 38.4681C13.6694 39.0641 14.1837 39.5224 14.7804 39.5224H15.5035C16.7645 39.5224 17.8257 40.5207 17.843 41.7817C17.8603 42.9951 16.927 43.9989 15.7413 44.0957Z" fill="#EFEFEF"/>
<path d="M5.19007 46.209V48.3017C5.19007 49.69 6.31558 50.8155 7.7038 50.8155H12.472C13.659 50.8155 14.0725 49.2385 13.0382 48.6557L6.91083 45.2038C6.14136 44.7697 5.19007 45.3262 5.19007 46.209Z" fill="#0E6130"/>
<defs>
<clipPath id="clip0_1_361">
<rect width="42.175" height="42.175" fill="white" transform="matrix(-1 0 0 1 57.2376 0.635986)"/>
</clipPath>
</defs>
</svg>
