<svg width="24" height="25" viewBox="0 0 24 25" fill="none" xmlns="http://www.w3.org/2000/svg">
<g clip-path="url(#clip0_5_322)">
<path d="M18.375 0.394775H5.625C2.5184 0.394775 0 2.91317 0 6.01978V18.7698C0 21.8764 2.5184 24.3948 5.625 24.3948H18.375C21.4816 24.3948 24 21.8764 24 18.7698V6.01978C24 2.91317 21.4816 0.394775 18.375 0.394775Z" fill="url(#paint0_radial_5_322)"/>
<path d="M18.375 0.394775H5.625C2.5184 0.394775 0 2.91317 0 6.01978V18.7698C0 21.8764 2.5184 24.3948 5.625 24.3948H18.375C21.4816 24.3948 24 21.8764 24 18.7698V6.01978C24 2.91317 21.4816 0.394775 18.375 0.394775Z" fill="url(#paint1_radial_5_322)"/>
<path d="M12.0008 3.01978C9.45478 3.01978 9.13519 3.03093 8.13525 3.0764C7.13719 3.12215 6.45591 3.28012 5.85984 3.51196C5.24316 3.7514 4.72013 4.07174 4.19906 4.59299C3.67753 5.11415 3.35719 5.63718 3.117 6.25359C2.8845 6.84984 2.72634 7.5314 2.68144 8.52899C2.63672 9.52903 2.625 9.84871 2.625 12.3949C2.625 14.941 2.63625 15.2596 2.68163 16.2595C2.72756 17.2576 2.88553 17.9389 3.11719 18.5349C3.35681 19.1516 3.67716 19.6747 4.19841 20.1957C4.71938 20.7172 5.24241 21.0383 5.85862 21.2778C6.45516 21.5096 7.13653 21.6676 8.13441 21.7133C9.13444 21.7588 9.45375 21.77 11.9997 21.77C14.5461 21.77 14.8646 21.7588 15.8646 21.7133C16.8626 21.6676 17.5447 21.5096 18.1412 21.2778C18.7576 21.0383 19.2799 20.7172 19.8007 20.1957C20.3223 19.6747 20.6425 19.1516 20.8828 18.5352C21.1133 17.9389 21.2715 17.2574 21.3184 16.2597C21.3633 15.2598 21.375 14.941 21.375 12.3949C21.375 9.84871 21.3633 9.52921 21.3184 8.52918C21.2715 7.53112 21.1133 6.84993 20.8828 6.25387C20.6425 5.63718 20.3223 5.11415 19.8007 4.59299C19.2793 4.07156 18.7578 3.75121 18.1406 3.51206C17.543 3.28012 16.8613 3.12206 15.8632 3.0764C14.8632 3.03093 14.5448 3.01978 11.9979 3.01978H12.0008ZM11.1598 4.70924C11.4095 4.70887 11.688 4.70924 12.0008 4.70924C14.5041 4.70924 14.8007 4.71824 15.7892 4.76315C16.7032 4.80496 17.1994 4.95768 17.5298 5.08603C17.9674 5.2559 18.2793 5.45906 18.6072 5.78728C18.9353 6.1154 19.1384 6.42787 19.3088 6.8654C19.4371 7.1954 19.59 7.69153 19.6316 8.60559C19.6765 9.5939 19.6863 9.89071 19.6863 12.3927C19.6863 14.8947 19.6765 15.1916 19.6316 16.1798C19.5898 17.0939 19.4371 17.59 19.3088 17.9201C19.1389 18.3576 18.9353 18.6692 18.6072 18.9971C18.2791 19.3252 17.9676 19.5283 17.5298 19.6983C17.1997 19.8272 16.7032 19.9795 15.7892 20.0213C14.8009 20.0662 14.5041 20.076 12.0008 20.076C9.49753 20.076 9.20081 20.0662 8.21259 20.0213C7.29853 19.9792 6.80241 19.8264 6.47166 19.6981C6.03422 19.5281 5.72166 19.3251 5.39353 18.9969C5.06541 18.6688 4.86234 18.3571 4.692 17.9194C4.56366 17.5893 4.41075 17.0932 4.36913 16.1791C4.32422 15.1908 4.31522 14.894 4.31522 12.3904C4.31522 9.88678 4.32422 9.59156 4.36913 8.60324C4.41094 7.68918 4.56366 7.19306 4.692 6.86259C4.86197 6.42506 5.06541 6.11259 5.39363 5.78446C5.72184 5.45634 6.03422 5.25318 6.47175 5.08293C6.80222 4.95403 7.29853 4.80168 8.21259 4.75968C9.07744 4.72059 9.41259 4.70887 11.1598 4.7069V4.70924ZM17.0052 6.26587C16.3841 6.26587 15.8802 6.76931 15.8802 7.39049C15.8802 8.01159 16.3841 8.51549 17.0052 8.51549C17.6263 8.51549 18.1302 8.01159 18.1302 7.39049C18.1302 6.7694 17.6263 6.26549 17.0052 6.26549V6.26587ZM12.0008 7.58034C9.34209 7.58034 7.18641 9.73603 7.18641 12.3949C7.18641 15.0537 9.34209 17.2084 12.0008 17.2084C14.6597 17.2084 16.8146 15.0537 16.8146 12.3949C16.8146 9.73612 14.6595 7.58034 12.0007 7.58034H12.0008ZM12.0008 9.26981C13.7267 9.26981 15.1259 10.6688 15.1259 12.3949C15.1259 14.1207 13.7267 15.5199 12.0008 15.5199C10.275 15.5199 8.87588 14.1207 8.87588 12.3949C8.87588 10.6688 10.2749 9.26981 12.0008 9.26981Z" fill="white"/>
</g>
<defs>
<radialGradient id="paint0_radial_5_322" cx="0" cy="0" r="1" gradientUnits="userSpaceOnUse" gradientTransform="translate(6.375 26.2432) rotate(-90) scale(23.7858 22.1227)">
<stop stop-color="#FFDD55"/>
<stop offset="0.1" stop-color="#FFDD55"/>
<stop offset="0.5" stop-color="#FF543E"/>
<stop offset="1" stop-color="#C837AB"/>
</radialGradient>
<radialGradient id="paint1_radial_5_322" cx="0" cy="0" r="1" gradientUnits="userSpaceOnUse" gradientTransform="translate(-4.02009 2.12362) rotate(78.681) scale(10.6324 43.827)">
<stop stop-color="#3771C8"/>
<stop offset="0.128" stop-color="#3771C8"/>
<stop offset="1" stop-color="#6600FF" stop-opacity="0"/>
</radialGradient>
<clipPath id="clip0_5_322">
<rect width="24" height="24" fill="white" transform="translate(0 0.394775)"/>
</clipPath>
</defs>
</svg>
