<svg width="56" height="57" viewBox="0 0 56 57" fill="none" xmlns="http://www.w3.org/2000/svg">
<path d="M24.8733 25.4734C24.0409 26.3015 23.571 27.4259 23.5667 28.6001C23.5667 29.7758 24.0337 30.9035 24.8651 31.7349C25.6966 32.5663 26.8242 33.0334 28 33.0334C29.1741 33.0291 30.2986 32.5591 31.1266 31.7267" stroke="#63C95D" stroke-width="1.5" stroke-linecap="round" stroke-linejoin="round"/>
<path d="M28 15.3C25.3695 15.3 22.7981 16.0801 20.6109 17.5415C18.4237 19.0029 16.719 21.0801 15.7124 23.5104C14.7057 25.9406 14.4424 28.6148 14.9555 31.1947C15.4687 33.7747 16.7354 36.1445 18.5955 38.0046C20.4555 39.8646 22.8253 41.1313 25.4053 41.6445C27.9852 42.1577 30.6594 41.8943 33.0897 40.8876C35.5199 39.881 37.5971 38.1763 39.0585 35.9891C40.52 33.802 41.3 31.2305 41.3 28.6" stroke="#63C95D" stroke-width="1.5" stroke-linecap="round" stroke-linejoin="round"/>
<path d="M28 6.43335C23.6158 6.43335 19.3301 7.7334 15.6848 10.1691C12.0396 12.6048 9.1984 16.0668 7.52066 20.1172C5.84292 24.1676 5.40394 28.6246 6.25925 32.9245C7.11456 37.2244 9.22573 41.1742 12.3258 44.2742C15.4259 47.3743 19.3756 49.4855 23.6755 50.3408C27.9754 51.1961 32.4324 50.7571 36.4828 49.0793C40.5332 47.4016 43.9952 44.5604 46.4309 40.9152C48.8666 37.2699 50.1667 32.9842 50.1667 28.6M36.225 20.3773L30.2167 26.3833" stroke="#63C95D" stroke-width="1.5" stroke-linecap="round" stroke-linejoin="round"/>
<path d="M48.86 14.236L41.3 15.3L42.364 7.74003C42.3718 7.65222 42.3532 7.56408 42.3107 7.48686C42.2682 7.40965 42.2036 7.34687 42.1252 7.30654C42.0468 7.26622 41.9582 7.25018 41.8706 7.26048C41.783 7.27078 41.7006 7.30695 41.6337 7.36437L36.6217 12.3507C36.1069 12.8692 35.7282 13.5069 35.5194 14.2071C35.3105 14.9073 35.278 15.6482 35.4247 16.364L36.2227 20.3774L40.236 21.173C40.9518 21.3197 41.6927 21.2871 42.3929 21.0783C43.0931 20.8695 43.7308 20.4908 44.2493 19.976L49.2333 14.9664C49.2909 14.8993 49.3272 14.8166 49.3375 14.7288C49.3477 14.641 49.3315 14.5521 49.2908 14.4736C49.2502 14.3951 49.187 14.3305 49.1094 14.2882C49.0318 14.2459 48.9433 14.2277 48.8553 14.236" stroke="#63C95D" stroke-width="1.5" stroke-linecap="round" stroke-linejoin="round"/>
</svg>
