<svg width="36" height="26" viewBox="0 0 36 26" fill="none" xmlns="http://www.w3.org/2000/svg">
<path d="M35.2058 4.73678C34.9993 3.97363 34.5965 3.2779 34.0374 2.71889C33.4784 2.15988 32.7826 1.7571 32.0195 1.55067C29.2255 0.788818 17.9818 0.788818 17.9818 0.788818C17.9818 0.788818 6.73772 0.811938 3.9442 1.57379C3.18107 1.78025 2.48536 2.18305 1.92635 2.74206C1.36734 3.30107 0.964544 3.99678 0.758082 4.7599C-0.0869983 9.72404 -0.414858 17.2877 0.781202 22.053C0.987664 22.8161 1.39046 23.5118 1.94947 24.0709C2.50848 24.6299 3.20419 25.0327 3.96732 25.2391C6.76106 26.001 18.0049 26.001 18.0049 26.001C18.0049 26.001 29.2488 26.001 32.0426 25.2391C32.8057 25.0327 33.5014 24.6299 34.0604 24.0709C34.6194 23.5118 35.0222 22.8161 35.2287 22.053C36.1198 17.082 36.3946 9.523 35.2056 4.737" fill="#FF0000"/>
<path d="M13.3022 19.0208L22.6298 13.6183L13.3022 8.21558V19.0208Z" fill="white"/>
</svg>
